<svg width="240" height="183" viewBox="0 0 240 183" fill="none" xmlns="http://www.w3.org/2000/svg">
<path d="M24.3535 165.528C79.3203 116.635 162.889 116.277 217.688 165.565C221.794 169.259 222.128 175.581 218.435 179.688C214.741 183.794 208.419 184.129 204.312 180.436C157.19 138.051 85.1057 138.257 37.6465 180.473C33.5199 184.143 27.1989 183.773 23.5283 179.646C19.8579 175.52 20.2271 169.199 24.3535 165.528ZM40.2344 4.02637C42.4012 -1.3422 47.8184 -1.34205 49.9854 4.02637L59.7461 29.9121L85.959 40.0332C91.3469 42.1924 91.3471 47.589 85.959 49.748L59.5322 60.0889C59.5294 60.09 59.5263 60.0907 59.5234 60.0918L49.7754 85.9736C47.5989 91.3421 42.1816 91.3419 40.0146 85.9736L30.2627 60.0918L30.2559 60.0889L4.04102 49.9678C-1.34714 47.8087 -1.34693 42.4121 4.04102 40.2529L30.4678 29.9121L30.4736 29.9082L40.2344 4.02637ZM190.234 4.02637C192.401 -1.3422 197.818 -1.34205 199.985 4.02637L209.746 29.9121L235.959 40.0332C241.347 42.1924 241.347 47.589 235.959 49.748L209.532 60.0889C209.529 60.09 209.526 60.0907 209.523 60.0918L199.775 85.9736C197.599 91.3421 192.182 91.3419 190.015 85.9736L180.263 60.0918L180.256 60.0889L154.041 49.9678C148.653 47.8087 148.653 42.4121 154.041 40.2529L180.468 29.9121L180.474 29.9082L190.234 4.02637Z" fill="#60646B"/>
</svg>
