<svg width="292" height="60" viewBox="0 0 292 60" fill="none" xmlns="http://www.w3.org/2000/svg">
<path fill-rule="evenodd" clip-rule="evenodd" d="M188.424 21.449C191.926 21.449 195.123 22.8557 196.989 26.1795H197.014V21.9607H201.259V48.9597C201.259 56.9368 195.685 60.0047 189.395 60.0047C183.31 60.0046 178.709 57.1406 178.044 51.823H182.493C183.26 54.7376 185.918 56.1696 189.395 56.1697C194.1 56.1697 196.964 53.5619 196.964 48.9597V44.8689H196.938C194.944 48.0137 191.977 49.4715 188.424 49.4715C181.393 49.4713 176.714 43.7698 176.714 35.4607C176.714 27.1259 181.393 21.4492 188.424 21.449ZM26.8221 2.68434C28.2666 -0.894819 31.8785 -0.894741 33.3231 2.68434L39.8299 19.9412L57.3055 26.6882C60.8975 28.1276 60.8975 31.7254 57.3055 33.1648L39.6883 40.0584C39.6863 40.0592 39.6834 40.0595 39.6815 40.0603L33.1834 57.3152C31.7325 60.8942 28.1202 60.8941 26.6756 57.3152L20.1756 40.0603L20.1697 40.0584L2.69416 33.3113C-0.898053 31.8719 -0.898053 28.2741 2.69416 26.8347L20.3113 19.9412L20.3153 19.9392L26.8221 2.68434ZM261.751 21.3474C269.242 21.3474 274.279 27.2277 274.279 35.5115C274.279 43.7442 269.242 49.574 261.751 49.574C254.26 49.5738 249.223 43.7441 249.223 35.5115C249.223 27.2278 254.26 21.3476 261.751 21.3474ZM125.068 21.449C131.358 21.4491 135.345 25.0032 135.346 30.3464V48.9597H131.051V45.1248H130.949C129.952 47.0678 127.829 49.3688 122.921 49.3689C117.551 49.3689 113.512 46.582 113.512 41.1873C113.512 35.0002 118.83 33.8748 124.25 33.159C129.389 32.4687 131.051 32.6732 131.051 30.6023V30.3464C131.05 27.4065 128.852 25.2851 125.068 25.2849C121.31 25.2849 118.702 27.3554 118.497 30.0398H114.074C114.304 25.1054 118.677 21.449 125.068 21.449ZM218.082 21.449C224.371 21.449 228.36 25.0031 228.36 30.3464V48.9597H224.065V45.1248H223.963C222.965 47.0679 220.844 49.3689 215.934 49.3689C210.566 49.3689 206.525 46.582 206.525 41.1873C206.525 35.0003 211.844 33.8749 217.263 33.159C222.403 32.4686 224.065 32.6732 224.065 30.6023V30.3464C224.065 27.4065 221.866 25.2849 218.082 25.2849C214.324 25.2849 211.715 27.3553 211.511 30.0398H207.088C207.318 25.1054 211.69 21.449 218.082 21.449ZM99.0662 35.6648C99.9611 37.0966 101.699 39.986 103.233 42.6961C103.156 40.0373 103.08 36.7393 103.08 35.4607V10.865H107.682V48.9597H102.339L88.3787 26.9207C87.3304 25.2843 85.1827 21.7558 82.4471 17.1795C82.6261 21.9094 82.6776 25.1825 82.6776 26.8699V48.9597H78.075V10.865H83.368L99.0662 35.6648ZM148.59 37.5056C149.356 39.5765 150.073 41.6476 150.763 43.7185C151.479 41.6475 152.169 39.5766 152.936 37.5056L158.689 21.9607H163.317L152.886 48.9597H148.487L138.056 21.9607H142.761L148.59 37.5056ZM171.652 48.9597H167.305V21.9607H171.652V48.9597ZM241.118 21.9607H246.59V25.6941H241.118V42.4148C241.118 44.5111 241.86 45.2272 244.084 45.2273H246.59V48.9597H243.676C239.048 48.9597 236.771 46.94 236.771 42.8748V25.6941H231.966V21.9607H236.771V14.5974H241.118V21.9607ZM290.08 21.5515C290.873 21.5516 291.563 21.6537 291.921 21.7048V26.0515C291.563 25.9492 290.515 25.7449 289.262 25.7449C286.271 25.7449 283.688 27.765 283.688 32.3416V48.9597H279.342V21.9607H283.483V26.2048H283.586C284.583 23.4181 286.706 21.5515 290.08 21.5515ZM261.751 25.2849C256.663 25.2851 253.62 29.3243 253.62 35.5115C253.62 41.6475 256.638 45.6363 261.751 45.6365C266.864 45.6365 269.882 41.6221 269.882 35.5115C269.882 29.3497 266.839 25.2849 261.751 25.2849ZM189.089 25.3357C184.41 25.3357 181.112 28.8387 181.112 35.4607C181.112 42.0824 184.41 45.5593 189.089 45.5593C194.1 45.5592 197.27 41.571 197.27 35.4607C197.27 29.3502 194.1 25.3359 189.089 25.3357ZM131.051 35.3582C130.385 35.9717 127.139 36.4577 124.046 36.8923C120.926 37.327 117.961 38.4006 117.961 41.4431C117.961 43.9743 120.082 45.4831 123.534 45.4832C128.852 45.4832 131.051 42.2614 131.051 38.7332V35.3582ZM224.065 35.3582C223.4 35.9718 220.153 36.4577 217.059 36.8923C213.94 37.327 210.974 38.4007 210.974 41.4431C210.974 43.9742 213.096 45.483 216.548 45.4832C221.865 45.4832 224.065 42.2614 224.065 38.7332V35.3582ZM169.478 10.7625C171.115 10.7625 172.444 12.092 172.444 13.7283C172.444 15.3645 171.115 16.6941 169.478 16.6941C167.842 16.6941 166.513 15.3645 166.513 13.7283C166.513 12.092 167.842 10.7625 169.478 10.7625Z" fill="#004FFF"/>
</svg>
